<?xml version="1.0" encoding="UTF-8"?>
<svg width="375" height="812" viewBox="0 0 375 812" xmlns="http://www.w3.org/2000/svg">
  <defs>
    <linearGradient id="primaryGradient" x1="0%" y1="0%" x2="100%" y2="100%">
      <stop offset="0%" style="stop-color:#0df214;stop-opacity:1" />
      <stop offset="100%" style="stop-color:#0bc911;stop-opacity:1" />
    </linearGradient>
  </defs>

  <!-- Background -->
  <rect width="375" height="812" fill="#f5f8f6" />

  <!-- Status Bar -->
  <rect y="0" width="375" height="44" fill="#f5f8f6" />
  <text x="30" y="28" font-family="SF Pro Display" font-size="14" font-weight="600" fill="#111811">9:41</text>
  <circle cx="330" cy="22" r="3" fill="#111811" />
  <rect x="338" y="16" width="18" height="10" rx="2" stroke="#111811" stroke-width="1.5" fill="none" />
  <rect x="340" y="18" width="14" height="6" rx="1" fill="#111811" />

  <!-- Skip Button -->
  <text x="335" y="70" text-anchor="end" font-family="SF Pro Display" font-size="16" fill="#608a62">건너뛰기</text>

  <!-- Illustration -->
  <g transform="translate(187.5, 280)">
    <!-- Checklist Illustration -->
    <circle cx="0" cy="-20" r="80" fill="#4cae4f" opacity="0.2" />
    <rect x="-55" y="-70" width="110" height="100" rx="16" fill="url(#primaryGradient)" />
    <rect x="-45" y="-55" width="90" height="70" rx="8" fill="#ffffff" />

    <!-- Check items -->
    <circle cx="-25" cy="-35" r="10" fill="#0df214" />
    <path d="M-30 -35 L-23 -28 L-18 -35" stroke="#ffffff" stroke-width="2" fill="none" />
    <rect x="-10" y="-42" width="50" height="14" rx="4" fill="#f5f8f6" />

    <circle cx="-25" cy="-5" r="10" fill="#f5f8f6" stroke="#e5e7eb" stroke-width="1" />
    <rect x="-10" y="-12" width="50" height="14" rx="4" fill="#f5f8f6" />

    <circle cx="-25" cy="25" r="10" fill="#f5f8f6" stroke="#e5e7eb" stroke-width="1" />
    <rect x="-10" y="18" width="50" height="14" rx="4" fill="#f5f8f6" />
  </g>

  <!-- Text Content -->
  <text x="187.5" y="420" text-anchor="middle" font-family="SF Pro Display" font-size="28" font-weight="700" fill="#111811">컨디션을 기록하세요</text>
  <text x="187.5" y="460" text-anchor="middle" font-family="SF Pro Display" font-size="18" fill="#608a62">
    <tspan x="187.5" dy="0">식후 1시간 뒤</tspan>
    <tspan x="187.5" dy="28">어떤 느낌인지 알려주세요</tspan>
  </text>

  <!-- Page Indicators -->
  <g transform="translate(187.5, 620)">
    <circle cx="-40" cy="0" r="6" fill="#e5e7eb" />
    <circle cx="0" cy="0" r="6" fill="#0df214" />
    <circle cx="40" cy="0" r="6" fill="#e5e7eb" />
  </g>

  <!-- Next Button -->
  <g transform="translate(30, 680)">
    <rect width="315" height="56" rx="28" fill="url(#primaryGradient)" />
    <text x="157.5" y="35" text-anchor="middle" font-family="SF Pro Display" font-size="18" font-weight="600" fill="#ffffff">다음</text>
  </g>

  <!-- Home Indicator -->
  <rect x="120" y="798" width="135" height="5" rx="2.5" fill="#111811" />
</svg>
